PathFileType	3	(X/Y/Z)	C:\Users\koon_\Desktop\
DataRate	CameraRate	NumFrames	NumMarkers	Units	OrigDataRate	OrigDataStartFrame	OrigNumFrames
100.0	100.0	8	27	mm	100.0	1	2010	
Frame#	Time	get:LFHD			get:RFHD			get:LBHD			get:RBHD			get:C7			get:T10			get:CLAV			get:STRN			get:RBAK			get:LSHO			get:LUPA			get:LELB			get:LFRA			get:LWRA			get:LWRB			get:LFIN			get:RSHO			get:RUPA			get:RELB			get:RFRA			get:RWRA			get:RWRB			get:RFIN			get:LASI			get:RASI			get:LPSI			get:RPSI			
		X1	Y1	Z1	X2	Y2	Z2	X3	Y3	Z3	X4	Y4	Z4	X5	Y5	Z5	X6	Y6	Z6	X7	Y7	Z7	X8	Y8	Z8	X9	Y9	Z9	X10	Y10	Z10	X11	Y11	Z11	X12	Y12	Z12	X13	Y13	Z13	X14	Y14	Z14	X15	Y15	Z15	X16	Y16	Z16	X17	Y17	Z17	X18	Y18	Z18	X19	Y19	Z19	X20	Y20	Z20	X21	Y21	Z21	X22	Y22	Z22	X23	Y23	Z23	X24	Y24	Z24	X25	Y25	Z25	X26	Y26	Z26	X27	Y27	Z27	
1	0	94.480339	1538.5513	-161.60533	-64.457794	1532.0625	-161.28798	85.76416	1527.4246	-285.6897	-40.546146	1531.6537	-302.29776	15.403812	1341.5535	-325.33545	16.746691	1082.2059	-367.83301	20.819613	1267.8269	-148.26678	38.646755	1078.3427	-108.68262	-69.753639	1273.3682	-353.10684	185.26509	1330.0944	-244.84557	243.18925	1183.2308	-232.6693	262.03006	1000.7114	-252.39789	239.91177	904.79315	-169.86014	219.6131	811.21472	-152.11392	279.24973	805.30426	-187.58315	274.79657	733.4267	-138.28192	-140.18294	1327.9711	-237.66354	-204.80898	1105.1299	-205.93234	-216.68513	1000.3389	-253.68509	-198.99277	936.2168	-169.51556	-173.3147	784.06476	-143.20798	-228.6004	783.46021	-194.4258	-216.96936	718.53003	-129.54166	164.48253	889.1532	-176.72673	-116.0062	875.77185	-166.65433	71.179474	924.65497	-379.63937	-38.826435	908.25555	-373.69543
2	0.01	94.231468	1538.6986	-161.70255	-64.662918	1531.9634	-161.41953	85.593948	1527.5089	-285.78006	-40.761131	1531.5289	-302.36481	15.400339	1341.5601	-325.29401	16.776131	1082.3005	-367.97971	20.856901	1267.7938	-148.25479	38.763039	1078.3258	-108.75644	-69.797356	1273.3857	-353.17548	185.27448	1330.1547	-244.95679	243.28572	1183.313	-232.92661	262.1933	1000.8035	-252.97325	240.35608	904.43787	-169.92419	220.08894	811.0083	-153.24608	279.67575	805.26477	-188.73318	275.80051	732.95752	-140.05148	-140.17815	1327.9183	-237.65697	-204.68353	1105.0648	-205.8853	-216.57312	1000.2537	-253.56033	-198.67706	936.2077	-169.33766	-172.91516	784.13434	-142.95027	-228.25156	783.41278	-194.12019	-216.10666	718.55054	-128.14565	164.53854	889.1543	-176.8847	-115.96678	875.77301	-166.72134	71.17952	924.65521	-379.7323	-38.822468	908.2345	-373.80704
3	0.02	94.010864	1538.8125	-161.77487	-64.889992	1531.8711	-161.58067	85.38398	1527.6089	-285.86505	-40.979782	1530.6639	-301.52112	15.405269	1341.5753	-325.38519	16.768877	1082.2622	-367.97745	20.945217	1267.8153	-148.37843	38.862103	1078.311	-108.90505	-69.784615	1273.3934	-353.1817	185.29826	1330.2095	-245.09143	243.39479	1183.3607	-233.22191	262.33496	1000.8939	-253.54022	240.70486	904.33118	-170.71559	220.55119	810.79932	-154.22891	280.09866	805.20514	-189.88988	276.38055	732.76355	-141.40303	-140.15141	1327.8884	-237.66368	-204.53166	1104.9917	-205.86423	-217.10883	1000.02	-253.00783	-198.4037	936.18903	-169.23111	-172.48239	784.17273	-142.64552	-227.94371	783.40533	-193.86232	-215.60837	718.51581	-127.7117	164.60596	889.1441	-176.99805	-115.89529	875.81195	-166.73755	71.206436	924.63702	-379.81943	-38.789085	908.23572	-373.90662
4	0.03	93.811157	1538.9791	-161.89082	-65.094353	1531.7714	-161.71057	85.229874	1527.6699	-285.96408	-41.173027	1530.5319	-301.61246	15.379342	1341.5427	-325.34894	16.832754	1082.2279	-367.9989	20.975033	1267.8037	-148.37163	38.925999	1078.2739	-108.99419	-69.80481	1273.3878	-353.2243	185.33723	1330.2351	-245.18524	243.50897	1183.4202	-233.4633	262.48438	1000.9846	-254.08319	241.07542	904.18256	-171.47995	221.02892	810.5885	-155.25912	280.52243	805.16565	-191.0266	276.92395	732.56207	-142.70392	-140.12686	1327.8671	-237.69283	-204.41389	1104.9723	-205.83559	-216.94801	999.95367	-252.94751	-198.13675	936.20715	-169.10857	-172.0408	784.28082	-142.2462	-227.62502	783.40112	-193.5683	-215.11453	718.56049	-127.41065	164.64511	889.17523	-177.12036	-115.83456	875.79828	-166.86189	71.259972	924.62921	-379.93646	-38.747719	908.21368	-373.99426
5	0.04	93.577415	1539.0924	-161.97227	-65.298721	1531.6846	-161.86543	85.070503	1527.755	-286.03525	-41.288292	1530.4025	-301.67014	15.397024	1341.5717	-325.42093	16.861835	1082.2958	-368.12332	21.007603	1267.8126	-148.56358	38.982258	1078.2645	-108.97703	-69.7537	1273.4177	-353.33096	185.34566	1330.2727	-245.2724	243.60645	1183.4487	-233.69582	262.65744	1001.0831	-254.63135	241.47705	904.07526	-172.21013	221.4866	810.36359	-156.31558	280.94284	805.13562	-192.16576	277.44888	732.35242	-144.08113	-140.10406	1327.8667	-237.74182	-204.26591	1104.9261	-205.85588	-216.73515	999.89886	-252.93663	-197.87212	936.25555	-169.02077	-171.61963	784.3681	-142.08301	-227.34	783.46356	-193.31865	-214.66255	718.60065	-127.09859	164.69206	889.16431	-177.23621	-115.80719	875.82306	-166.92517	71.308258	924.63055	-380.00708	-38.70253	908.18567	-374.07193
6	0.05	93.365555	1539.2147	-162.08926	-65.500977	1531.5919	-162.04376	84.936707	1527.8292	-286.1293	-41.355892	1531.012	-302.82855	15.452408	1341.6112	-325.53909	16.914801	1082.327	-368.2373	21.034412	1267.8158	-148.46873	39.052784	1078.2565	-109.18316	-69.721252	1273.4286	-353.41901	185.37549	1330.2899	-245.31259	243.702	1183.4677	-233.87146	262.80756	1001.1443	-255.11086	241.84433	903.94012	-172.9534	221.98659	810.12091	-157.28572	281.37497	805.11334	-193.16914	277.97098	732.13855	-145.39603	-140.08437	1327.8622	-237.82982	-204.13388	1104.9144	-205.86458	-216.56381	999.85822	-252.87253	-197.59944	936.30853	-168.88084	-171.20065	784.49646	-141.73911	-227.02194	783.51874	-193.12138	-214.52487	718.90405	-127.38251	164.73633	889.17377	-177.28909	-115.75515	875.82703	-167.05806	71.365326	924.63843	-380.1199	-38.642937	908.19598	-374.20447
7	0.06	93.174522	1539.3314	-162.15312	-65.708328	1531.5256	-162.20004	84.825211	1527.8789	-286.20639	-41.240543	1531.137	-303.81464	15.477582	1341.6116	-325.52509	16.966105	1082.3438	-368.30725	21.078594	1267.7773	-148.5522	39.098835	1078.2472	-109.31225	-69.699127	1273.4263	-353.46484	185.40805	1330.3126	-245.37579	243.78526	1183.4962	-234.04756	262.97757	1001.2362	-255.57425	242.19385	903.77936	-173.67131	222.43642	809.92523	-158.20433	281.80759	805.07751	-194.28024	278.53302	731.95801	-146.6481	-140.06964	1327.8403	-237.91365	-204.06244	1104.9197	-205.88751	-216.38814	999.77887	-252.89774	-197.35738	936.34412	-168.78786	-170.77176	784.62427	-141.31488	-226.69165	783.55389	-192.8029	-214.07393	719.0144	-126.986	164.74002	889.18964	-177.38861	-115.72091	875.82489	-167.22653	71.437508	924.61401	-380.2482	-38.523823	908.20984	-374.30441
8	0.07	93.027863	1539.4243	-162.18262	-65.902794	1531.4482	-162.40878	84.71817	1527.9291	-286.24692	-41.465107	1530.6857	-303.66193	15.537357	1341.6703	-325.71732	17.03941	1082.3694	-368.40848	21.079071	1267.8212	-148.75577	39.095497	1078.2241	-109.35604	-69.645889	1273.4501	-353.59296	185.4276	1330.3254	-245.41249	243.88016	1183.521	-234.17981	263.12024	1001.337	-256.0303	242.55777	903.63	-174.3567	222.9062	809.71259	-159.25447	282.22693	805.0116	-195.32579	279.06152	731.75586	-147.90765	-140.04713	1327.8181	-238.00188	-203.94699	1104.9036	-205.95609	-216.23074	999.74213	-252.86716	-197.11472	936.41064	-168.69038	-170.45027	784.75659	-141.05182	-226.37114	783.59534	-192.46373	-213.32201	718.92236	-125.9487	164.76128	889.19061	-177.45708	-115.72456	875.84192	-167.32579	71.513367	924.60553	-380.34375	-38.473724	908.21063	-374.46939
